<?xml version="1.0" encoding="utf-8"?>
<!-- Generator: Adobe Illustrator 19.1.0, SVG Export Plug-In . SVG Version: 6.00 Build 0)  -->
<!DOCTYPE svg PUBLIC "-//W3C//DTD SVG 1.1//EN" "http://www.w3.org/Graphics/SVG/1.1/DTD/svg11.dtd">
<svg version="1.1" id="Layer_1" xmlns="http://www.w3.org/2000/svg" xmlns:xlink="http://www.w3.org/1999/xlink" x="0px" y="0px"
	 viewBox="0 0 540.0004272 69.9854279" style="enable-background:new 0 0 540.0004272 69.9854279;" xml:space="preserve">
<path style="fill: #ffffff;" d="M489.9667969,69.1690369h6.2567749V50.0122375l0.0235291-1.4594002
	c0.0028992-1.9272995,0.2704773-3.844799,0.7938843-5.6996994c1.0878906-3.6631012,4.506897-6.1338005,8.3272095-6.0171013
	c0.6727905-0.0083008,1.343689,0.0615005,2.000885,0.2080002c1.1065063,0.2192001,2.1065063,0.8051987,2.8389282,1.6640015
	c0.4814758,0.6069984,0.8485718,1.2963867,1.0858765,2.0341988c0.4404907,1.4365997,0.6465149,2.9351006,0.6104126,4.4375
	v23.9892998h6.2578125V47.7173347c-0.0107422-1.1019974,0.0751953-2.2030983,0.2559204-3.2904968
	c0.2040405-1.4696999,0.7401733-2.8735008,1.5682373-4.1055031c1.6885376-2.2729073,4.3837891-3.5751991,7.2149048-3.4852982
	c0.6152344-0.0048981,1.2275391,0.0639,1.8270874,0.2041016c1.8096313,0.3778992,3.3272095,1.607399,4.0713501,3.3002892
	c0.21875,0.5879097,0.3700562,1.1987076,0.4521484,1.8208084c0.1621094,1.2425995,0.2353516,2.4956017,0.2197266,3.7485008
	v23.2593002h6.2235718V43.8238373c0.0479736-1.9487991-0.2284546-3.8921013-0.8192749-5.75
	c-0.7304688-2.3833008-2.4179688-4.3564987-4.6591797-5.4477997c-1.8544922-0.8555012-3.8828125-1.2705002-5.9258423-1.2133999
	c-1.7352905-0.0185013-3.4579468,0.3139992-5.0614624,0.9780979c-2.6044922,1.171402-4.8085938,3.0791016-6.3417969,5.4882011
	c-0.765625-2.2885094-2.4082031-4.1795998-4.5674438-5.2583008c-1.8329773-0.8543987-3.8397827-1.2679996-5.8622742-1.2079983
	c-4.5214844-0.0737-8.7587891,2.2026997-11.1932983,6.0142002v-5.1802025h-5.5976868V69.1690369"/>
<path style="fill: #ffffff;" d="M453.1747742,50.7076378c-0.0282898,2.3929977,0.2568054,4.7796974,0.8486023,7.0990982
	c0.8222961,3.4238014,2.7637024,6.4745979,5.5157166,8.6709023c3.1297913,2.4110947,7.0009155,3.657196,10.9501953,3.5253983
	l1.4316101-0.0508041c6.6308899-0.2528992,12.4364929-4.5282974,14.6435852-10.7860947
	c0.8544006-2.9151001,1.2607117-5.9434013,1.2021179-8.9799995c0.0028992-1.1817131-0.0674133-2.3623009-0.2139282-3.5347099
	c-0.3768921-4.0840034-2.1971741-7.8993912-5.1346741-10.7611923c-3.2304993-3.0069008-7.5176086-4.6161995-11.9287109-4.4775982
	c-4.2452087-0.1147003-8.381897,1.3467007-11.6122742,4.1020985c-1.4883118,1.294899-2.7032166,2.8735008-3.5723267,4.644001
	C453.7997742,43.466835,453.0722961,47.0747375,453.1747742,50.7076378 M459.6073914,50.7076378
	c-0.0722046-2.5660019,0.3467102-5.1216011,1.2333984-7.5303001c1.5039062-4.0107994,5.3642883-6.6455002,9.6484985-6.5849991
	c4.2547913-0.0068016,8.0751953,2.6093979,9.6044922,6.5795975c0.8886108,2.3384018,1.3095093,4.8272018,1.2412109,7.3272018
	c0.0741882,2.6190987-0.343811,5.2294998-1.2344055,7.6942902c-1.4667969,4.0352097-5.3183899,6.7061081-9.6112976,6.6641083
	c-4.2861938,0.0400009-8.1397095-2.6016006-9.6484985-6.6123009
	C459.9541016,55.8340378,459.5351868,53.275425,459.6073914,50.7076378"/>
<path style="fill: #ffffff;" d="M445.5820007,55.6446381c-0.0869141,0.6288986-0.2059937,1.2518997-0.3583984,1.8680992
	c-0.3475952,1.5713005-1.0429077,3.0449982-2.0361023,4.3106003c-1.7148132,2.0067978-4.25,3.1239967-6.8877258,3.0341988
	c-4.1278992,0.1054001-7.8407593-2.4942017-9.1532898-6.4091988c-0.8280945-2.5059128-1.2138977-5.1371994-1.1376953-7.7754021
	c-0.0762024-2.6142998,0.3232117-5.2206993,1.1787109-7.6923981c1.4296875-3.9639015,5.2479858-6.5566025,9.4589844-6.422802
	c2.2705078-0.0649986,4.4570007,0.8520012,6.0018921,2.5161018c1.2198181,1.4165001,2.0508118,3.125,2.4121094,4.9584999
	l6.0840149-0.9384995l-0.2578125-1.1499023c-0.7684937-3.4692993-2.8955078-6.4853973-5.905304-8.3739967
	c-2.6025085-1.5064011-5.5731812-2.2535114-8.5770874-2.1573009c-2.3085938-0.0156002-4.5977173,0.4120998-6.7431946,1.261301
	c-3.4941101,1.2757988-6.335907,3.8900986-7.8994141,7.2650986c-1.5145874,3.4325981-2.2606812,7.1557999-2.1846008,10.9071999
	c-0.0273132,2.3676987,0.2481079,4.7290001,0.8164978,7.0268974c0.781189,3.377903,2.6494141,6.4052925,5.3193054,8.6161995
	c3.0214844,2.4014053,6.7987976,3.6464996,10.656189,3.5137024c3.929718,0.1191025,7.749115-1.3125,10.6329346-3.9843979
	c2.6092834-2.5693016,4.2772827-5.9414024,4.7342834-9.5742111L445.5820007,55.6446381"/>
<path style="fill: #ffffff;" d="M363.8320007,50.8116379c-0.171814,5.6766968,2.3242798,11.1063995,6.7442017,14.6717911
	c0.6112976,0.5019989,1.2538757,0.9639053,1.9258118,1.3809052c3.781189,2.1913986,8.0995789,3.2783051,12.4676819,3.1387024
	c1.3399048,0.0038986,2.6796875-0.0772018,4.0087891-0.2412033c4.0606079-0.3788986,7.905304-2,11.0117188-4.6415939
	c4.1523743-3.6582031,6.4492798-8.9854012,6.2558899-14.5171013c0.1366882-4.6739006-1.4893188-9.2280998-4.5537109-12.7588005
	c-1.2528992-1.4243011-2.734375-2.6319122-4.381897-3.5732994c-3.8027039-2.0219002-8.070282-3.0078011-12.375885-2.8584003
	c-1.9229126-0.0156002-3.8417969,0.1674995-5.7276001,0.5458984c-4.3994141,0.7730007-8.3729858,3.1031017-11.1963196,6.5650005
	C365.1875,41.9849358,363.7041016,46.3467369,363.8320007,50.8116379 M378.0155945,50.7769356l0.0234985-0.9971008
	c0.0263062-1.6644974,0.3905945-3.3065987,1.0722046-4.8260994c1.0849915-2.3466988,3.4462891-3.8373985,6.0312805-3.8066978
	c0.3994141-0.0009995,0.7969055,0.033699,1.1885071,0.1040001c2.2705078,0.4862976,4.1279297,2.1156998,4.9052124,4.3041992
	c0.570282,1.6323013,0.8378906,3.3544998,0.7909851,5.0825005c0.0020142,0.6816902-0.0272827,1.3628006-0.0868835,2.0419998
	c-0.0840149,1.3848-0.4160156,2.7441978-0.9804077,4.0126877c-1.0469055,2.3203125-3.375,3.7949104-5.9208984,3.75l-0.625-0.0262871
	c-2.5743103-0.2520027-4.7626953-1.9834023-5.5996094-4.4288025
	C378.2373047,54.3121376,377.9667969,52.5474281,378.0155945,50.7769356"/>
<polyline style="fill: #ffffff;" points="346.7333984,18.2017365 346.7333984,27.8316364 360.8817749,27.8316364 360.8817749,18.2017365 
	346.7333984,18.2017365 "/>
<polyline style="fill: #ffffff;" points="346.7333984,32.2466354 346.7333984,69.1690369 360.8817749,69.1690369 360.8817749,32.2466354 
	346.7333984,32.2466354 "/>
<path style="fill: #ffffff;" d="M342.6270142,18.2017365h-14.2881165v17.6605988c-2.7861938-2.9642982-6.7128906-4.5859089-10.7784119-4.4496975
	c-6.0301819-0.1289005-11.5204773,3.4619999-13.820282,9.038599c-1.2470093,3.1386986-1.8447266,6.4976006-1.7539062,9.8740005
	c-0.0771179,3.6987991,0.6611938,7.3691902,2.1611938,10.7509995c0.9462891,2.2178001,2.3662109,4.2021904,4.1611023,5.8124962
	c2.5809937,2.1182022,5.8457031,3.2256012,9.1835938,3.1143036c2.3681946,0.032196,4.7070007-0.5176086,6.8135071-1.5996094
	c0.3623047-0.1933899,0.7098999-0.4120941,1.0429077-0.6523895c1.5195923-1.1601028,2.875-2.5195007,4.0322876-4.0410004v5.4589996
	h13.2461243V18.2017365 M328.4433899,50.603138c0.0009155,0.634697-0.0253906,1.2689972-0.0801086,1.9012871
	c-0.0762024,1.282711-0.3808899,2.541111-0.9024048,3.7163124c-0.9481812,2.0976906-3.0438843,3.4384995-5.3456726,3.4218979
	c-0.5146179,0.0039024-1.0273132-0.0673981-1.5214233-0.2098999c-1.7841797-0.586998-3.1835938-1.9864006-3.7714844-3.7714996
	c-0.499115-1.5308113-0.7315063-3.1358109-0.686615-4.7450981c-0.0018921-0.6377106,0.0234985-1.2754021,0.0743103-1.9117126
	c0.0653992-1.271389,0.3457031-2.5228882,0.8320007-3.699688c0.8114929-1.9961014,2.7450867-3.3076019,4.9003906-3.3232002
	c2.5771179-0.0205002,4.8887024,1.5878906,5.765625,4.0131989C328.2373047,47.4717369,328.4862976,49.0347366,328.4433899,50.603138
	"/>
<path style="fill: #ffffff;" d="M299.0370789,69.1690369V32.2466354h-14.1503906v17.7656021c0.0020142,0.6621895-0.0214844,1.3247986-0.0712891,1.9853973
	c-0.055603,1.2910004-0.3280945,2.5629997-0.8066101,3.7642021c-0.8222961,1.9657974-2.7626953,3.2294998-4.8926086,3.1855011
	c-0.3134766,0.0009995-0.625-0.0205002-0.9354858-0.0644035c-0.9649048-0.1132965-1.8613892-0.5527992-2.5429993-1.2460976
	c-0.5147095-0.5625-0.8828125-1.2452011-1.0674133-1.9854088c-0.2528992-1.0141907-0.3729858-2.056591-0.3563843-3.1010933
	V32.2466354h-14.218811v23.5025024c-0.0552063,2.23629,0.2549133,4.4667969,0.9190063,6.6034966
	c0.7088928,2.3720055,2.2416992,4.4120979,4.3226929,5.752903c2.1812134,1.3144989,4.694397,1.972702,7.237793,1.8974991
	l0.9072266-0.0176086c2.6210938-0.0116882,5.1894836-0.73629,7.4306946-2.0937881
	c1.9159851-1.2832108,3.6103821-2.8711014,5.0137024-4.7031021v5.9804993H299.0370789"/>
<path style="fill: #ffffff;" d="M230.1757965,44.2061348c0.191391-0.5663986,0.4340973-1.1138,0.7279968-1.6342964
	c0.3472137-0.6553001,0.8491058-1.2158012,1.4624023-1.6338005c0.4218903-0.2636108,0.8769989-0.4712029,1.351593-0.6176109
	c1.2553101-0.3603897,2.5581055-0.5268898,3.8633118-0.4946899l0.5526886,0.0116882
	c0.7583008,0.008812,1.5093079,0.1456108,2.2212067,0.4043121c0.4281921,0.1557999,0.8139038,0.4096909,1.1260071,0.7412987
	c0.3089905,0.3553886,0.5370941,0.7733917,0.6688843,1.2250023c0.2118988,0.7514992,0.3130035,1.5303001,0.2983093,2.3111
	c-0.8919983,0.3534966-1.7944031,0.6825981-2.7041016,0.9872894c-4.141098,1.2539101-8.3592987,2.2363091-12.6269073,2.9414101
	c-1.9223938,0.3480988-3.7993011,0.9076996-5.5981903,1.668499c-1.3231964,0.5326996-2.5189972,1.3382988-3.5112,2.3642006
	l-0.2656097,0.3056984c-1.5019989,1.8696022-2.2831879,4.2168007-2.2021942,6.6133003
	c0.0010071,4.1395988,2.5298004,7.8592987,6.3789062,9.3827972c2.2548981,0.8710938,4.6591949,1.2860947,7.0751953,1.2207031
	c2.9799957,0.0605011,5.9439087-0.4589996,8.7256012-1.5292969c2.0634918-0.922905,3.9375-2.2198029,5.5283051-3.8252029
	c0.0317993,0.2128906,0.0659943,0.4247971,0.1030884,0.6356964c0.0917969,0.6690063,0.2510071,1.3271942,0.4741058,1.9639053
	c0.2749023,0.6610947,0.592804,1.3026962,0.9525909,1.9208984h13.2803192l-0.2250977-0.4746094
	c-0.5508118-1.0995941-0.9712219-2.2597885-1.2510071-3.4570923c-0.2212219-1.2959099-0.3197937-2.6102982-0.296814-3.9256973
	V45.0059357c-0.0292969-1.9790001-0.4199982-3.9360008-1.1552887-5.7738991
	c-0.5537109-1.5849991-1.496109-3.0059013-2.7388-4.1343002c-1.9429016-1.6483994-4.3193054-2.7056007-6.8442078-3.0453987
	c-3.2480927-0.4707012-6.526886-0.6846008-9.8080902-0.6396999c-2.5899048-0.0166016-5.1748047,0.2026997-7.7246094,0.6542988
	c-1.7421875,0.2631989-3.430191,0.8051987-5,1.6054916l-0.5561981,0.3203087
	c-1.6528015,0.9336014-3.0419922,2.2714996-4.0370941,3.8881989c-0.842804,1.5303001-1.4398956,3.1841011-1.7689972,4.8999023
	L230.1757965,44.2061348 M242.4481964,51.6460381v2.2598c0.006897,0.7294998-0.0503082,1.4584999-0.1723022,2.1781998
	c-0.1641083,1.1816978-0.6558075,2.2939987-1.4198914,3.2099991c-1.6822052,1.830101-4.0581055,2.8652-6.5429993,2.8514977
	c-0.7031097,0.0166016-1.4038086-0.0830002-2.0752106-0.2929001c-1.5316925-0.4638977-2.5619965-1.8964996-2.5137024-3.4960976
	c0-0.160202,0.0108032-0.3194008,0.0326996-0.4785004c0.1314087-0.8194008,0.5362091-1.5703011,1.1495056-2.1288986
	l0.1367035-0.1240997c0.378891-0.2998009,0.7928925-0.5507011,1.2338867-0.7470016
	c1.3212128-0.5777016,2.687912-1.0424995,4.0869141-1.3891983
	C238.4208984,52.9717369,240.4511871,52.3570366,242.4481964,51.6460381"/>
<path style="fill: #ffffff;" d="M181.8950043,69.1690369h6.2577972V49.0039368c-0.0649109-2.097599,0.2060852-4.1922989,0.8041992-6.2036018
	c0.3456879-1.1756973,0.9628906-2.2533989,1.8017883-3.1469078c1.9311066-1.8564911,4.5200043-2.8701897,7.1982117-2.8173904
	c1.1630859-0.0200005,2.3168945,0.1958008,3.3930969,0.6352005c1.9951019,0.7626991,3.4589996,2.4941902,3.8798981,4.5868988
	c0.2978058,1.5322914,0.4360046,3.0909004,0.4100952,4.6514015v22.4594994h6.2577972V46.4659348
	c0.0010071-0.7377968-0.0077972-1.4755974-0.0267944-2.2128983c-0.0028992-1.2969017-0.1112976-2.591301-0.3202972-3.8711014
	c-0.1567993-0.7719994-0.3809052-1.5282974-0.6699066-2.2612991c-0.6777954-1.8959999-1.9736938-3.5083008-3.6797028-4.5775986
	c-2.3891907-1.4379997-5.1342926-2.1758003-7.9233856-2.1303997l-0.8417969,0.0185986
	c-4.4262085,0.0527-8.5278168,2.3334999-10.9082031,6.0653992v-5.25h-5.6327972V69.1690369"/>
<path style="fill: #ffffff;" d="M144.3701019,50.7076378c-0.0283051,2.3929977,0.256897,4.7796974,0.8476868,7.0990982
	c0.8232117,3.4238014,2.7640991,6.4745979,5.5161133,8.6709023c3.1298981,2.4110947,7.0009918,3.657196,10.9501953,3.5253983
	l1.4330902-0.0508041c6.6308136-0.2528992,12.4346008-4.5282974,14.6426086-10.7860947
	c0.8553925-2.9151001,1.2602081-5.9434013,1.2021027-8.9799995c0.003891-1.1817131-0.0679016-2.3623009-0.2138977-3.5347099
	c-0.3769073-4.0840034-2.1972046-7.8993912-5.1352081-10.7611923c-3.2299957-3.0069008-7.5175934-4.6161995-11.9286957-4.4775982
	c-4.2451019-0.1147003-8.3814087,1.3467007-11.6123047,4.1020985c-1.487793,1.294899-2.7026978,2.8735008-3.5717926,4.644001
	C144.9951019,43.466835,144.2670898,47.0747375,144.3701019,50.7076378 M150.8017883,50.7076378
	c-0.0717926-2.5660019,0.3471069-5.1216011,1.234314-7.5303001c1.5048981-4.0107994,5.3647919-6.6455002,9.647995-6.5849991
	c4.2548981-0.0068016,8.0746918,2.6093979,9.6049957,6.5795975c0.8876953,2.3384018,1.3090057,4.8272018,1.2416992,7.3272018
	c0.0732117,2.6190987-0.3447876,5.2294998-1.2348938,7.6942902c-1.4667969,4.0352097-5.3188019,6.7061081-9.6118011,6.6641083
	c-4.285202,0.0400009-8.1392059-2.6016006-9.647995-6.6123009C151.1488953,55.8340378,150.7310028,53.275425,150.8017883,50.7076378
	"/>
<path style="fill: #ffffff;" d="M91.3832932,69.1690369h6.2578049V50.0122375l0.0224991-1.4594002
	c0.0034027-1.9272995,0.2705002-3.844799,0.7938995-5.6996994c1.0884018-3.6631012,4.5073013-6.1338005,8.3266983-6.0171013
	c0.6728058-0.0083008,1.3447037,0.0615005,2.0018997,0.2080002c1.1070023,0.2192001,2.1070023,0.8051987,2.8379059,1.6640015
	c0.4820023,0.6069984,0.8500977,1.2963867,1.0859985,2.0341988c0.4408951,1.4365997,0.6468964,2.9351006,0.6097946,4.4375
	v23.9892998h6.2583008V47.7173347c-0.0102005-1.1019974,0.0746994-2.2030983,0.2569046-3.2904968
	c0.2040939-1.4696999,0.7401962-2.8735008,1.5677948-4.1055031c1.689003-2.2729073,4.3843002-3.5751991,7.2144089-3.4852982
	c0.6147003-0.0048981,1.2289886,0.0639,1.8275909,0.2041016c1.8101044,0.3778992,3.3272095,1.6068993,4.0713043,3.3002892
	c0.2187958,0.5879097,0.3710938,1.1987076,0.4526978,1.8208084c0.1611023,1.2425995,0.2342987,2.4956017,0.2192078,3.7485008
	v23.2593002h6.2230988V43.8238373c0.0489044-1.9487991-0.2280121-3.8921013-0.8193054-5.75
	c-0.7299957-2.3833008-2.4170074-4.355999-4.6576996-5.4477997c-1.8560028-0.8555012-3.8843079-1.2705002-5.9263-1.2133999
	c-1.7357941-0.0185013-3.4580002,0.3139992-5.0630035,0.9780979c-2.6029968,1.171402-4.8075943,3.0791016-6.3397903,5.4882011
	c-0.7661057-2.2885094-2.4092102-4.1795998-4.5679092-5.2583008c-1.8330002-0.8543987-3.841301-1.2679996-5.8622971-1.2079983
	c-4.5220032-0.0737-8.7593002,2.2026997-11.1942978,6.0142002v-5.1802025h-5.5972061V69.1690369"/>
<path style="fill: #ffffff;" d="M69.1240005,69.1690369h6.2577972V49.8384247c-0.0243988-2.4725876,0.3272018-4.9340897,1.0429993-7.3007889
	l0.1567001-0.4505997c0.858902-2.5053978,3.2089996-4.1939011,5.8580017-4.2080994
	c1.6240005,0.027401,3.2103958,0.4961014,4.5887985,1.355999l2.1552963-5.8060989
	c-1.9120941-1.2622986-4.1405945-1.9610004-6.4315948-2.0161991c-2.0914001-0.0088005-4.0756989,0.9228992-5.4048004,2.5370998
	c-0.9966049,1.2045975-1.8647995,2.5098-2.591301,3.8945999v-5.597702h-5.631897V69.1690369"/>
<path style="fill: #ffffff;" d="M59.4897003,57.2784271l-0.3115005,0.8105087c-0.6097984,1.6318016-1.5668983,3.1104012-2.8041992,4.3358994
	c-1.8071022,1.6387024-4.1805992,2.5108032-6.6185989,2.4327011c-4.1133003,0.0781021-7.8858032-2.2745018-9.625-6.0019989
	c-0.939003-2.0605011-1.4605026-4.2861099-1.5347023-6.5488014h27.5341988
	c0.0195007-0.5561981,0.0311966-1.1123085,0.0346985-1.6689987c0.0034027-1.2256012-0.0660019-2.4501991-0.2080994-3.6679001
	c-0.2963028-3.1529007-1.368103-6.1836014-3.1200981-8.8223c-3.0560989-4.3818016-8.1240005-6.9174995-13.463398-6.7348995
	l-1.5791016,0.0566998c-5.9964981,0.3080883-11.3115005,3.9589996-13.7509003,9.4463005
	c-1.3505974,3.1932983-2.0033989,6.6385994-1.9141006,10.1049004c-0.025898,2.3173981,0.2568016,4.6279984,0.841301,6.8710976
	c0.9584999,3.8535995,3.3256989,7.208004,6.6343002,9.402401c3.0376015,1.8661957,6.5527,2.8076019,10.1161995,2.7089996
	c3.2113991,0.0986023,6.3911018-0.6679993,9.205101-2.2188034c3.5468979-2.1649933,6.0790977-5.6610985,7.0303001-9.7059975
	L59.4897003,57.2784271 M38.9429016,47.1612358c0.0560989-0.9654007,0.2098999-1.9234009,0.4594002-2.8578987
	c1.1274986-4.6094017,5.2954979-7.8246994,10.0401001-7.7456017c3.008297-0.0776978,5.8788986,1.2612,7.7528992,3.6156921
	c0.453598,0.5517082,0.8330002,1.1611099,1.1278992,1.8115082c0.7032013,1.6431007,1.1211014,3.3936005,1.2359009,5.1763H38.9429016
	"/>
<path style="fill: #ffffff;" d="M0,58.1475372c0.1987,1.1688881,0.5103,2.3153992,0.9307,3.4237976
	C2.1064,64.9278336,4.7212,67.5830383,8.0595999,68.8106384C10.5424995,69.6641388,13.1587,70.068428,15.7837,70.0030365
	c3.1694002,0.0731964,6.3037004-0.6728973,9.0996008-2.1669998c3.5053997-1.8936081,5.7157993-5.5312996,5.7803001-9.5147018
	L30.6299,57.3858376c-0.0776997-1.9365005-0.8208008-3.7876015-2.1044998-5.2397995
	c-1.1035004-1.2192001-2.4922009-2.1455002-4.0415001-2.696701c-2.8521004-1.0396004-5.7558994-1.9312019-8.7002001-2.6705017
	l-2.2676001-0.6254082c-1.0966997-0.2905922-2.1841002-0.6152916-3.2601995-0.97369
	c-0.1758003-0.0708008-0.3496008-0.1473999-0.5205002-0.2299995c-0.7320004-0.3227005-1.3760004-0.8159027-1.8785-1.4389
	c-0.4995003-0.6201019-0.77-1.3936005-0.7646003-2.1900024c-0.0015001-0.3939972,0.0605001-0.785099,0.1835999-1.1590996
	c0.2886-0.8013077,0.7982998-1.5043983,1.4702005-2.0273972c0.7284994-0.5776024,1.5795994-0.9819107,2.4882994-1.1816025
	c1.2651005-0.2807999,2.5586004-0.4130974,3.8540001-0.3950005c0.9349995-0.0093079,1.8677006,0.0859032,2.7812004,0.2835999
	c1.1332989,0.2294998,2.1908989,0.7413025,3.0741997,1.4874001c1.2348995,1.1084023,2.0209999,2.6303024,2.2105007,4.2783012
	l6.1185989-0.8344994c-0.2533989-1.8661995-0.8836994-3.661602-1.852499-5.2769012
	c-0.9643002-1.446209-2.3192997-2.5887985-3.9077015-3.2953987c-2.7851982-1.2612-5.8202991-1.8724995-8.8759995-1.7875996
	c-1.9208994-0.0151005-3.8324995,0.2636986-5.6688995,0.8271999c-1.3285999,0.3685875-2.5855002,0.9589996-3.7183003,1.7455902
	C2.6138,35.8247375,1.0434999,38.8365364,1.043,42.0508385c-0.0479,2.9389992,1.332,5.7187996,3.7021,7.4579964
	c1.0131998,0.7124023,2.1240001,1.2749023,3.2979002,1.671402c2.6103001,0.9096985,5.2631998,1.6913986,7.9491997,2.3432999
	c1.8296003,0.4218903,3.6293993,0.9637985,5.3872004,1.6230011c0.3516006,0.1337967,0.6898994,0.3008003,1.0098,0.4981003
	l0.1991997,0.1376991c1.0552006,0.7187004,1.6737995,1.9237976,1.6434994,3.2001991
	c0.0035,0.6455002-0.1224995,1.2860985-0.3701,1.8828011c-0.6991997,1.527298-1.9784985,2.7118988-3.5551987,3.291996
	c-1.4643002,0.505806-3.0087013,0.7430954-4.557601,0.7002029c-1.0985994,0.0117035-2.1942997-0.1064987-3.2650995-0.3516006
	c-1.7876005-0.3711014-3.3866997-1.3604012-4.5170999-2.7929993C6.9902,60.3799362,6.3773999,58.8155365,6.1884999,57.1748352
	L0,58.1475372"/>
<path style="fill: #ffffff;" d="M406.7997742,65.2344284c0,1.2031097,0.4785156,2.3565063,1.3291016,3.2070007
	c0.8496094,0.8516083,2.0039062,1.3291092,3.2070007,1.3291092c1.2032166,0,2.3575134-0.4775009,3.2080078-1.3291092
	c0.8497009-0.8504944,1.3282166-2.003891,1.3282166-3.2070007c0-1.2030945-0.4785156-2.3563919-1.3282166-3.2080002
	c-0.8504944-0.8505936-2.0047913-1.3280907-3.2080078-1.3280907c-1.2030945,0-2.3573914,0.4774971-3.2070007,1.3280907
	C407.2782898,62.8780365,406.7997742,64.0313339,406.7997742,65.2344284"/>
<path style="fill: #ffffff;" d="M391.8964844,12.2622375c10.9023132-0.0078115,22.217804,6.0424995,27.0205078,15.8896999l10.3340149-5.6669998
	c-7.045929-14.46-21.2539062-22.9067001-37.3330078-22.4687004"/>
<path style="fill: #ffffff;" d="M391.9003906,27.3326378c5.9100952,0.4183998,11.2558899,3.6918983,14.3602905,8.7387009l9.0870056-5.5883026
	c-4.905304-7.9756088-14.0704041-13.1279984-23.4101868-13.7896099L391.9003906,27.3326378"/>
</svg>
