<?xml version="1.0" encoding="UTF-8"?>
<svg width="146px" height="175px" viewBox="0 0 146 175" version="1.1" xmlns="http://www.w3.org/2000/svg" xmlns:xlink="http://www.w3.org/1999/xlink">
    <!-- Generator: Sketch 46.2 (44496) - http://www.bohemiancoding.com/sketch -->
    <title>icon-trusted</title>
    <desc>Created with Sketch.</desc>
    <defs></defs>
    <g id="Page-1" stroke="none" stroke-width="1" fill="none" fill-rule="evenodd">
        <g id="icon-trusted" fill-rule="nonzero" fill="#000000">
            <path d="M72.9166667,175 C72.5848958,175 72.253125,174.952604 71.9322917,174.865104 C8.12291667,156.989583 0.357291667,117.756771 0.0583333333,116.097917 C0.0182291667,115.882812 0,115.667708 0,115.448958 L0,7.4484375 C0,5.97552083 0.8859375,4.64479167 2.24947917,4.0796875 C3.61302083,3.51822917 5.18072917,3.828125 6.2234375,4.87083333 C14.35,12.99375 25.1197917,17.4671875 36.5458333,17.4671875 C49.5760417,17.4671875 61.775,11.5973958 70.0145833,1.35989583 C71.4036458,-0.364583333 74.4296875,-0.364583333 75.81875,1.35989583 C84.0583333,11.5973958 96.2536458,17.4671875 109.283854,17.4671875 C120.713542,17.4671875 131.483333,12.9901042 139.609896,4.87083333 C140.652604,3.828125 142.220313,3.51458333 143.583854,4.0796875 C144.947396,4.64479167 145.833333,5.97552083 145.833333,7.4484375 L145.833333,115.448958 C145.833333,115.667708 145.815104,115.882812 145.775,116.097917 C145.476042,117.756771 137.706771,156.989583 73.8973958,174.865104 C73.5802083,174.952604 73.2484375,175 72.9166667,175 Z M7.29166667,115.066146 C7.65989583,116.633854 9.91302083,125.015625 18.0614583,134.961458 C26.3447917,145.064063 42.5651042,158.867188 72.9166667,167.566146 C103.264583,158.863542 119.484896,145.060417 127.768229,134.961458 C135.905729,125.0375 138.169792,116.663021 138.541667,115.0625 L138.541667,15.3270833 C130.057813,21.4557292 119.915104,24.7588542 109.283854,24.7588542 C95.440625,24.7588542 82.4067708,19.1041667 72.9166667,9.1109375 C63.4265625,19.1041667 50.3890625,24.7588542 36.5458333,24.7588542 C25.9182292,24.7588542 15.7755208,21.4557292 7.29166667,15.3270833 L7.29166667,115.066146 Z" id="Shape"></path>
            <path d="M87.5,127.604167 L58.3333333,127.604167 L58.3333333,98.4375 L29.1666667,98.4375 L29.1666667,69.2708333 L58.3333333,69.2708333 L58.3333333,40.1041667 L87.5,40.1041667 L87.5,69.2708333 L116.666667,69.2708333 L116.666667,98.4375 L87.5,98.4375 L87.5,127.604167 Z M65.625,120.3125 L80.2083333,120.3125 L80.2083333,91.1458333 L109.375,91.1458333 L109.375,76.5625 L80.2083333,76.5625 L80.2083333,47.3958333 L65.625,47.3958333 L65.625,76.5625 L36.4583333,76.5625 L36.4583333,91.1458333 L65.625,91.1458333 L65.625,120.3125 Z" id="Shape"></path>
        </g>
    </g>
</svg>