<?xml version="1.0" encoding="UTF-8"?>
<svg width="181px" height="149px" viewBox="0 0 181 149" version="1.1" xmlns="http://www.w3.org/2000/svg" xmlns:xlink="http://www.w3.org/1999/xlink">
    <!-- Generator: Sketch 46.2 (44496) - http://www.bohemiancoding.com/sketch -->
    <title>icon-apps</title>
    <desc>Created with Sketch.</desc>
    <defs></defs>
    <g id="Page-1" stroke="none" stroke-width="1" fill="none" fill-rule="evenodd">
        <g id="icon-apps" transform="translate(3.000000, 3.000000)">
            <path d="M117.704352,90.5451524 C118.039986,89.6511629 119.03874,89.1952438 119.93661,89.5304898 C120.834092,89.8661239 121.286519,90.8648778 120.954765,91.7627475 L109.341437,122.973226 C109.006191,123.866827 108.007049,124.323134 107.113448,123.987888 C106.215966,123.652254 105.759659,122.656992 106.094905,121.759511 L117.704352,90.5451524 Z" id="Shape" fill="#000000"></path>
            <path d="M124.942796,96.5469883 L135.154997,106.758801 L124.942796,116.971002 C124.181896,117.728021 124.181896,118.968897 124.942796,119.729797 L124.942796,119.729797 C125.703696,120.486817 126.944572,120.486817 127.701592,119.729797 L139.29125,108.140139 L139.29125,108.140139 C140.052538,107.379239 140.052538,106.138363 139.29125,105.377463 L127.701592,93.7878045 C126.944572,93.0269046 125.703696,93.0269046 124.942796,93.7878045 L124.942796,93.7878045 C124.181896,94.5490925 124.181896,95.7899686 124.942796,96.5469883 Z" id="Shape" fill="#000000"></path>
            <path d="M102.102994,96.5469883 L91.8946731,106.758801 L102.102994,116.971002 C102.863893,117.728021 102.863893,118.968897 102.102994,119.729797 L102.102994,119.729797 C101.345974,120.486817 100.105098,120.486817 99.3441977,119.729797 L87.7545393,108.140139 L87.7545393,108.140139 C86.9936394,107.379239 86.9936394,106.138363 87.7545393,105.377463 L99.3441977,93.7878045 C100.105098,93.0269046 101.345974,93.0269046 102.102994,93.7878045 L102.102994,93.7878045 C102.863893,94.5490925 102.863893,95.7899686 102.102994,96.5469883 Z" id="Shape" fill="#000000"></path>
            <rect id="Rectangle-path" stroke="#000000" stroke-width="5" stroke-linecap="round" stroke-linejoin="round" x="68.3013428" y="70.9204527" width="89.104448" height="71.6146139"></rect>
            <path d="M18.5549388,109.564935 L25.3801453,109.564935 C26.8709038,109.564935 28.0881109,110.786022 28.0881109,112.276781 L28.0881109,112.276781 C28.0881109,113.767539 26.8705158,114.984746 25.3801453,114.984746 L18.5549388,114.984746 C17.0641802,114.984746 15.8469731,113.767151 15.8469731,112.276781 L15.8469731,112.276781 C15.8469731,110.78641 17.0645682,109.564935 18.5549388,109.564935 Z" id="Shape" fill="#000000"></path>
            <path d="M41.1650358,107.941475 C43.5571562,107.941475 45.4964616,109.88078 45.4964616,112.276781 C45.4964616,114.668901 43.5571562,116.608206 41.1650358,116.608206 C38.7729154,116.608206 36.83361,114.668901 36.83361,112.276781 C36.83361,109.881168 38.7729154,107.941475 41.1650358,107.941475 Z" id="Shape" fill="#000000"></path>
            <path d="M52.4423411,122.145975 L7.15308023,122.145975 C3.22713145,122.145975 0,118.926604 0,114.992895 L0,103.957323 L52.4423411,103.957323 L52.4423411,122.145975 Z" id="Shape" stroke="#000000" stroke-width="5" stroke-linecap="round" stroke-linejoin="round"></path>
            <path d="M83.0948517,16.6323181 L83.0948517,70.8614742 L78.3106109,70.8614742 L74.0300152,70.8614742 L70.6546616,70.8614742 L68.3017308,70.8614742 L68.3017308,70.9204527 L65.5037454,70.8222846 L59.5915412,70.8222846 C55.6659805,70.8222846 52.4423411,74.0420437 52.4423411,77.9753648 L52.4423411,103.957323 L0,103.957323 L0,16.6323181 L83.0948517,16.6323181 Z" id="Shape" stroke="#000000" stroke-width="5" stroke-linecap="round" stroke-linejoin="round"></path>
            <path d="M30.8864844,10.8605758 C29.8563012,10.8605758 29.0212901,10.0259528 29.0212901,8.99538156 C29.0212901,7.9648103 29.8559131,7.12979926 30.8864844,7.12979926 L64.2000106,7.12979926 C65.2301939,7.12979926 66.0690851,7.9648103 66.0690851,8.99538156 C66.0690851,10.0259528 65.2301939,10.8605758 64.2000106,10.8605758 L30.8864844,10.8605758 Z" id="Shape" fill="#000000"></path>
            <path d="M22.0517416,6.146954 C23.7997549,6.146954 25.2125222,7.56321345 25.2125222,9.30773467 C25.2125222,11.0518679 23.7997549,12.4646352 22.0517416,12.4646352 C20.3114885,12.4646352 18.8944531,11.0518679 18.8944531,9.30773467 C18.8944531,7.56321345 20.3114885,6.146954 22.0517416,6.146954 Z" id="Shape" fill="#000000"></path>
            <path d="M7.15308023,0.192068062 L75.9460397,0.192068062 C79.8758686,0.192068062 83.0952397,3.41531935 83.0952397,7.34088012 L83.0952397,16.6323181 L0,16.6323181 L0,7.34088012 C0,3.40755902 3.21937113,0.192068062 7.15308023,0.192068062 Z" id="Shape" stroke="#000000" stroke-width="5" stroke-linecap="round" stroke-linejoin="round"></path>
            <path d="M163.052592,90.5921024 L163.052592,83.7672839 C163.052592,82.2765254 164.273679,81.0589303 165.764438,81.0589303 L165.764438,81.0589303 C167.255196,81.0589303 168.472403,82.2769134 168.472403,83.7672839 L168.472403,90.5921024 C168.472403,92.082861 167.254808,93.3000681 165.764438,93.3000681 L165.764438,93.3000681 C164.273679,93.3000681 163.052592,92.082473 163.052592,90.5921024 Z" id="Shape" fill="#000000"></path>
            <path d="M163.052592,129.751094 L163.052592,122.926276 C163.052592,121.435517 164.273679,120.217922 165.764438,120.217922 C167.255196,120.217922 168.472403,121.439397 168.472403,122.926276 L168.472403,129.751094 C168.472403,131.241853 167.254808,132.463328 165.764438,132.463328 C164.273679,132.463716 163.052592,131.241853 163.052592,129.751094 Z" id="Shape" fill="#000000"></path>
            <path d="M161.433012,107.141773 C161.433012,104.749653 163.372317,102.814227 165.764438,102.814227 C168.156558,102.814227 170.096251,104.749653 170.096251,107.141773 C170.096251,109.533893 168.156558,111.473199 165.764438,111.473199 C163.372317,111.473199 161.433012,109.533893 161.433012,107.141773 Z" id="Shape" fill="#000000"></path>
            <path d="M62.0849339,117.424205 C62.0849339,118.450508 61.2460427,119.289787 60.2158594,119.289787 C59.1895563,119.289787 58.3506651,118.450508 58.3506651,117.424205 L58.3506651,84.1067982 C58.3506651,83.076615 59.1895563,82.2412159 60.2158594,82.2412159 C61.2460427,82.2412159 62.0849339,83.0762269 62.0849339,84.1067982 L62.0849339,117.424205 Z" id="Shape" fill="#000000"></path>
            <path d="M57.3674319,126.255067 C57.3674319,124.510934 58.7875715,123.098167 60.5282125,123.098167 C62.2766139,123.098167 63.6889932,124.510934 63.6889932,126.255067 C63.6889932,127.9992 62.2762259,129.411968 60.5282125,129.411968 C58.7875715,129.41158 57.3674319,127.9992 57.3674319,126.255067 Z" id="Shape" fill="#000000"></path>
            <path d="M157.405791,70.9204527 L158.545395,70.9204527 L167.458517,70.9204527 C171.384077,70.9204527 174.607717,74.1596127 174.607717,78.073533 L174.607717,135.444845 C174.607717,139.362645 171.376317,142.597925 167.458517,142.597925 L158.545395,142.597925 L157.405791,142.597925 L157.405791,70.9204527 Z" id="Shape" stroke="#000000" stroke-width="5" stroke-linecap="round" stroke-linejoin="round"></path>
            <path d="M52.4423411,135.444845 L52.4423411,78.073533 C52.4423411,74.1402119 55.6659805,70.9204527 59.5915412,70.9204527 L65.5033574,70.9204527 L68.3013428,70.9204527 L68.3013428,142.597925 L65.5033574,142.597925 L59.5915412,142.597925 C55.6659805,142.597925 52.4423411,139.382434 52.4423411,135.444845 Z" id="Shape" stroke="#000000" stroke-width="5" stroke-linecap="round" stroke-linejoin="round"></path>
            <path d="M15.0744327,52.1431806 L22.6838201,52.1431806 C23.1482756,52.1431806 23.5269795,52.5253766 23.5269795,52.9898321 L23.5269795,60.5957274 C23.5269795,61.0597948 23.1482756,61.4427669 22.6838201,61.4427669 L15.0744327,61.4427669 C14.6138574,61.4427669 14.2316613,61.0601829 14.2316613,60.5957274 L14.2316613,52.9898321 C14.2316613,52.5253766 14.6138574,52.1431806 15.0744327,52.1431806 Z" id="Shape" stroke="#000000" stroke-width="5" stroke-linecap="round" stroke-linejoin="round"></path>
            <path d="M15.0744327,75.9037459 L22.6838201,75.9037459 C23.1482756,75.9037459 23.5269795,76.2824498 23.5269795,76.7469053 L23.5269795,84.3562927 C23.5269795,84.8203601 23.1482756,85.199064 22.6838201,85.199064 L15.0744327,85.199064 C14.6138574,85.199064 14.2316613,84.8203601 14.2316613,84.3562927 L14.2316613,76.7469053 C14.2316613,76.2824498 14.6138574,75.9037459 15.0744327,75.9037459 Z" id="Shape" stroke="#000000" stroke-width="5" stroke-linecap="round" stroke-linejoin="round"></path>
            <path d="M36.0102394,75.9037459 L43.6157467,75.9037459 C44.0840823,75.9037459 44.4627862,76.2863299 44.4627862,76.7469053 L44.4627862,84.3562927 C44.4627862,84.8203601 44.0840823,85.199064 43.6157467,85.199064 L36.0102394,85.199064 C35.545784,85.199064 35.1631999,84.8203601 35.1631999,84.3562927 L35.1631999,76.7469053 C35.1631999,76.2863299 35.5453959,75.9037459 36.0102394,75.9037459 Z" id="Shape" stroke="#000000" stroke-width="5" stroke-linecap="round" stroke-linejoin="round"></path>
            <path d="M36.0102394,52.1431806 L43.6157467,52.1431806 C44.0840823,52.1431806 44.4627862,52.5253766 44.4627862,52.9898321 L44.4627862,60.5957274 C44.4627862,61.0597948 44.0840823,61.4427669 43.6157467,61.4427669 L36.0102394,61.4427669 C35.545784,61.4427669 35.1631999,61.0601829 35.1631999,60.5957274 L35.1631999,52.9898321 C35.1631999,52.5253766 35.5453959,52.1431806 36.0102394,52.1431806 Z" id="Shape" stroke="#000000" stroke-width="5" stroke-linecap="round" stroke-linejoin="round"></path>
            <path d="M56.941778,52.1431806 L64.5511654,52.1431806 C65.0152329,52.1431806 65.3939368,52.5253766 65.3939368,52.9898321 L65.3939368,60.5957274 C65.3939368,61.0597948 65.0152329,61.4427669 64.5511654,61.4427669 L56.941778,61.4427669 C56.4777105,61.4427669 56.0990066,61.0601829 56.0990066,60.5957274 L56.0990066,52.9898321 C56.0990066,52.5253766 56.4777105,52.1431806 56.941778,52.1431806 Z" id="Shape" stroke="#000000" stroke-width="5" stroke-linecap="round" stroke-linejoin="round"></path>
            <path d="M15.0744327,28.8540551 L22.6838201,28.8540551 C23.1482756,28.8540551 23.5269795,29.232759 23.5269795,29.6972145 L23.5269795,37.3062138 C23.5269795,37.7706693 23.1482756,38.1493732 22.6838201,38.1493732 L15.0744327,38.1493732 C14.6138574,38.1493732 14.2316613,37.7706693 14.2316613,37.3062138 L14.2316613,29.6972145 C14.2316613,29.232759 14.6138574,28.8540551 15.0744327,28.8540551 Z" id="Shape" stroke="#000000" stroke-width="5" stroke-linecap="round" stroke-linejoin="round"></path>
            <path d="M36.0102394,28.8540551 L43.6157467,28.8540551 C44.0840823,28.8540551 44.4627862,29.232759 44.4627862,29.6972145 L44.4627862,37.3062138 C44.4627862,37.7706693 44.0840823,38.1493732 43.6157467,38.1493732 L36.0102394,38.1493732 C35.545784,38.1493732 35.1631999,37.7706693 35.1631999,37.3062138 L35.1631999,29.6972145 C35.1631999,29.232759 35.5453959,28.8540551 36.0102394,28.8540551 Z" id="Shape" stroke="#000000" stroke-width="5" stroke-linecap="round" stroke-linejoin="round"></path>
            <path d="M56.941778,28.8540551 L64.5511654,28.8540551 C65.0152329,28.8540551 65.3939368,29.232759 65.3939368,29.6972145 L65.3939368,37.3062138 C65.3939368,37.7706693 65.0152329,38.1493732 64.5511654,38.1493732 L56.941778,38.1493732 C56.4777105,38.1493732 56.0990066,37.7706693 56.0990066,37.3062138 L56.0990066,29.6972145 C56.0990066,29.232759 56.4777105,28.8540551 56.941778,28.8540551 Z" id="Shape" stroke="#000000" stroke-width="5" stroke-linecap="round" stroke-linejoin="round"></path>
        </g>
    </g>
</svg>