<?xml version="1.0" encoding="UTF-8"?>
<svg width="146px" height="177px" viewBox="0 0 146 177" version="1.1" xmlns="http://www.w3.org/2000/svg" xmlns:xlink="http://www.w3.org/1999/xlink">
    <!-- Generator: Sketch 46.2 (44496) - http://www.bohemiancoding.com/sketch -->
    <title>icon-reach</title>
    <desc>Created with Sketch.</desc>
    <defs></defs>
    <g id="Page-1" stroke="none" stroke-width="1" fill="none" fill-rule="evenodd">
        <g id="icon-reach" transform="translate(1.000000, 1.000000)" stroke="#000000" stroke-width="2" fill="#000000" fill-rule="nonzero">
            <path d="M70.901084,115.243902 C78.6151042,115.243902 84.8915989,108.967408 84.8915989,101.253388 C84.8915989,93.5393674 78.6151042,87.2628726 70.901084,87.2628726 C63.1870639,87.2628726 56.9105691,93.5393674 56.9105691,101.253388 C56.9105691,108.967408 63.1870639,115.243902 70.901084,115.243902 Z M70.901084,91.6349085 C76.2043636,91.6349085 80.519563,95.950108 80.519563,101.253388 C80.519563,106.556667 76.2043636,110.871867 70.901084,110.871867 C65.5978045,110.871867 61.282605,106.556667 61.282605,101.253388 C61.282605,95.950108 65.59693,91.6349085 70.901084,91.6349085 Z" id="Shape"></path>
            <path d="M123.576044,106.920733 L123.139382,106.920733 L123.139382,97.7560985 C123.139382,97.1119557 122.854679,96.5009801 122.360378,96.0855166 L92.2307431,70.7736697 C92.0263856,70.6017237 91.7932084,70.472546 91.5451847,70.3861366 L72.4578426,33.0101397 C72.4700691,32.9176205 72.4857889,32.826847 72.4857889,32.7308366 L72.4857889,13.5287458 L79.4723709,13.5287458 C80.6784297,13.5287458 81.6556778,12.5520576 81.6556778,11.34669 C81.6556778,10.1413224 80.6784297,9.16463424 79.4723709,9.16463424 L72.4857889,9.16463424 L72.4857889,2.18205577 C72.4857889,0.976688163 71.5085407,0 70.302482,0 C69.0964233,0 68.1191751,0.976688163 68.1191751,2.18205577 L68.1191751,9.16463424 L61.132593,9.16463424 C59.9265343,9.16463424 58.9492861,10.1413224 58.9492861,11.34669 C58.9492861,12.5520576 59.9265343,13.5287458 61.132593,13.5287458 L68.1191751,13.5287458 L68.1191751,31.8405578 C68.0903554,31.8859446 68.0501826,31.9173662 68.0248562,31.967117 L48.3506412,70.7998544 C48.3349213,70.8138195 48.3157082,70.8234206 48.3008618,70.8382585 L20.7911949,96.1501055 C20.342307,96.5629504 20.0864234,97.1451229 20.0864234,97.7552257 L20.0864234,106.91986 L19.649762,106.91986 C8.81444659,106.91986 0,115.730128 0,126.558362 L0,172.817944 C0,174.023312 0.977248166,175 2.18330689,175 L22.2697303,175 L120.955202,175 L141.041625,175 C142.247684,175 143.224932,174.023312 143.224932,172.817944 L143.224932,126.558362 C143.225806,115.731001 134.410486,106.920733 123.576044,106.920733 Z M69.9854658,37.5610352 L86.6397308,70.2621958 L53.507612,70.2621958 L69.9854658,37.5610352 Z M4.36748711,126.559235 C4.36748711,118.137372 11.2239441,111.284844 19.6506354,111.284844 L20.0872967,111.284844 L20.0872967,170.636761 L4.36748711,170.636761 L4.36748711,126.559235 Z M24.4539105,109.102789 L24.4539105,98.7135846 L49.6833317,75.4991297 L90.6465356,75.4991297 C90.6526489,75.4991297 90.6596355,75.4991297 90.6640021,75.4991297 C90.7888872,75.4991297 90.9094058,75.4834189 91.029051,75.4642168 L118.773642,98.7720637 L118.773642,109.102789 L118.773642,170.636761 L84.7140541,170.636761 L84.7140541,138.787475 C84.7140541,131.323099 78.641841,125.250001 71.1775514,125.250001 C63.7132618,125.250001 57.6410486,131.323099 57.6410486,138.787475 L57.6410486,170.636761 L24.4547839,170.636761 L24.4547839,109.102789 L24.4539105,109.102789 Z M62.0067891,169.763939 L62.0067891,138.787475 C62.0067891,133.72947 66.1201393,129.614113 71.1766781,129.614113 C76.2332168,129.614113 80.346567,133.72947 80.346567,138.787475 L80.346567,169.763939 L62.0067891,169.763939 Z M138.859192,170.636761 L123.139382,170.636761 L123.139382,111.284844 L123.576044,111.284844 C132.002735,111.284844 138.859192,118.137372 138.859192,126.559235 L138.859192,170.636761 Z" id="Shape"></path>
        </g>
    </g>
</svg>