<?xml version="1.0" encoding="UTF-8"?>
<svg width="117px" height="175px" viewBox="0 0 117 175" version="1.1" xmlns="http://www.w3.org/2000/svg" xmlns:xlink="http://www.w3.org/1999/xlink">
    <!-- Generator: Sketch 46.2 (44496) - http://www.bohemiancoding.com/sketch -->
    <title>icon-map</title>
    <desc>Created with Sketch.</desc>
    <defs></defs>
    <g id="Page-1" stroke="none" stroke-width="1" fill="none" fill-rule="evenodd">
        <g id="icon-map" fill-rule="nonzero" fill="#000000">
            <path d="M58.3333333,174.121354 L55.3328125,169.779167 C53.0760417,166.508854 0,89.3192708 0,58.3333333 C0,26.1697917 26.1697917,0 58.3333333,0 C90.496875,0 116.666667,26.1697917 116.666667,58.3333333 C116.666667,89.3192708 63.590625,166.508854 61.3338542,169.779167 L58.3333333,174.121354 Z M58.3333333,7.29166667 C30.1875,7.29166667 7.29166667,30.1875 7.29166667,58.3333333 C7.29166667,83.0776042 46.9765625,144.210938 58.3333333,161.196875 C69.6901042,144.210938 109.375,83.0776042 109.375,58.3333333 C109.375,30.1875 86.4791667,7.29166667 58.3333333,7.29166667 Z" id="Shape"></path>
            <path d="M58.3333333,83.8541667 C44.2640625,83.8541667 32.8125,72.40625 32.8125,58.3333333 C32.8125,44.2604167 44.2640625,32.8125 58.3333333,32.8125 C72.4026042,32.8125 83.8541667,44.2604167 83.8541667,58.3333333 C83.8541667,72.40625 72.4026042,83.8541667 58.3333333,83.8541667 Z M58.3333333,40.1041667 C48.2817708,40.1041667 40.1041667,48.2817708 40.1041667,58.3333333 C40.1041667,68.3848958 48.2817708,76.5625 58.3333333,76.5625 C68.3848958,76.5625 76.5625,68.3848958 76.5625,58.3333333 C76.5625,48.2817708 68.3848958,40.1041667 58.3333333,40.1041667 Z" id="Shape"></path>
        </g>
    </g>
</svg>