<?xml version="1.0" encoding="UTF-8"?>
<svg width="175px" height="124px" viewBox="0 0 175 124" version="1.1" xmlns="http://www.w3.org/2000/svg" xmlns:xlink="http://www.w3.org/1999/xlink">
    <!-- Generator: Sketch 46.2 (44496) - http://www.bohemiancoding.com/sketch -->
    <title>icon-webcast</title>
    <desc>Created with Sketch.</desc>
    <defs></defs>
    <g id="Page-1" stroke="none" stroke-width="1" fill="none" fill-rule="evenodd">
        <g id="icon-webcast" fill-rule="nonzero" fill="#000000">
            <path d="M120.314117,123.959999 L18.2294116,123.959999 C12.1991223,123.959999 7.29176465,119.052641 7.29176465,113.022352 L7.29176465,47.3964702 C7.29176465,41.3661809 12.1991223,36.4588233 18.2294116,36.4588233 L120.314117,36.4588233 C126.344406,36.4588233 131.251764,41.3661809 131.251764,47.3964702 L131.251764,113.022352 C131.251764,119.052641 126.344406,123.959999 120.314117,123.959999 Z M18.2294116,43.7505879 C16.2168846,43.7505879 14.5835293,45.3875891 14.5835293,47.3964702 L14.5835293,113.022352 C14.5835293,115.031233 16.2168846,116.668234 18.2294116,116.668234 L120.314117,116.668234 C122.326644,116.668234 123.959999,115.031233 123.959999,113.022352 L123.959999,47.3964702 C123.959999,45.3875891 122.326644,43.7505879 120.314117,43.7505879 L18.2294116,43.7505879 Z" id="Shape"></path>
            <path d="M43.7505879,98.4388228 C35.7077715,98.4388228 29.1670586,91.8981099 29.1670586,83.8552935 C29.1670586,75.8124771 35.7077715,69.2717642 43.7505879,69.2717642 C51.7934043,69.2717642 58.3341172,75.8124771 58.3341172,83.8552935 C58.3341172,91.8981099 51.7934043,98.4388228 43.7505879,98.4388228 Z M43.7505879,76.5635288 C39.7291797,76.5635288 36.4588233,79.8338853 36.4588233,83.8552935 C36.4588233,87.8767017 39.7291797,91.1470582 43.7505879,91.1470582 C47.7719961,91.1470582 51.0423526,87.8767017 51.0423526,83.8552935 C51.0423526,79.8338853 47.7719961,76.5635288 43.7505879,76.5635288 Z" id="Shape"></path>
            <path d="M94.7929405,98.4388228 C86.7501241,98.4388228 80.2094112,91.8981099 80.2094112,83.8552935 C80.2094112,75.8124771 86.7501241,69.2717642 94.7929405,69.2717642 C102.835757,69.2717642 109.37647,75.8124771 109.37647,83.8552935 C109.37647,91.8981099 102.835757,98.4388228 94.7929405,98.4388228 Z M94.7929405,76.5635288 C90.7715323,76.5635288 87.5011758,79.8338853 87.5011758,83.8552935 C87.5011758,87.8767017 90.7715323,91.1470582 94.7929405,91.1470582 C98.8143487,91.1470582 102.084705,87.8767017 102.084705,83.8552935 C102.084705,79.8338853 98.8143487,76.5635288 94.7929405,76.5635288 Z" id="Shape"></path>
            <path d="M94.7929405,76.5635288 L43.7505879,76.5635288 C41.734415,76.5635288 40.1047056,74.9301736 40.1047056,72.9176465 C40.1047056,70.9051195 41.734415,69.2717642 43.7505879,69.2717642 L94.7929405,69.2717642 C96.8091134,69.2717642 98.4388228,70.9051195 98.4388228,72.9176465 C98.4388228,74.9301736 96.8091134,76.5635288 94.7929405,76.5635288 Z" id="Shape"></path>
            <path d="M83.8552935,43.7505879 C81.8391206,43.7505879 80.2094112,42.1172326 80.2094112,40.1047056 L80.2094112,25.5211763 C80.2094112,23.5122951 78.5760559,21.875294 76.5635288,21.875294 L3.64588233,21.875294 C1.6297094,21.875294 0,20.2419387 0,18.2294116 C0,16.2168846 1.6297094,14.5835293 3.64588233,14.5835293 L76.5635288,14.5835293 C82.5938182,14.5835293 87.5011758,19.4908869 87.5011758,25.5211763 L87.5011758,40.1047056 C87.5011758,42.1172326 85.8714664,43.7505879 83.8552935,43.7505879 Z" id="Shape"></path>
            <path d="M113.022352,43.7505879 C111.006179,43.7505879 109.37647,42.1172326 109.37647,40.1047056 L109.37647,18.2294116 C109.37647,12.1991223 114.283827,7.29176465 120.314117,7.29176465 L134.897646,7.29176465 C136.913819,7.29176465 138.543528,8.92511993 138.543528,10.937647 C138.543528,12.950174 136.913819,14.5835293 134.897646,14.5835293 L120.314117,14.5835293 C118.30159,14.5835293 116.668234,16.2205305 116.668234,18.2294116 L116.668234,40.1047056 C116.668234,42.1172326 115.038525,43.7505879 113.022352,43.7505879 Z" id="Shape"></path>
            <path d="M164.064705,21.875294 L142.189411,21.875294 C136.159121,21.875294 131.251764,16.9679363 131.251764,10.937647 C131.251764,4.90735761 136.159121,0 142.189411,0 L164.064705,0 C170.094994,0 175.002352,4.90735761 175.002352,10.937647 C175.002352,16.9679363 170.094994,21.875294 164.064705,21.875294 Z M142.189411,7.29176465 C140.176884,7.29176465 138.543528,8.92876582 138.543528,10.937647 C138.543528,12.9465281 140.176884,14.5835293 142.189411,14.5835293 L164.064705,14.5835293 C166.077232,14.5835293 167.710587,12.9465281 167.710587,10.937647 C167.710587,8.92876582 166.077232,7.29176465 164.064705,7.29176465 L142.189411,7.29176465 Z" id="Shape"></path>
            <path d="M167.429854,114.70675 C166.445466,114.70675 165.457432,114.513518 164.52044,114.123409 L126.202217,98.1580899 C124.342817,97.3851628 123.464159,95.2486758 124.240732,93.3892758 C125.017305,91.5298758 127.161084,90.654864 129.009546,91.4277911 L167.324123,107.39311 L167.710587,107.134252 L167.710587,60.5763348 L165.920459,56.9523278 L167.324123,60.3174772 L129.009546,76.2827959 C127.157438,77.0630147 125.017305,76.1807112 124.240732,74.3213112 C123.464159,72.4619112 124.342817,70.3290701 126.202217,69.5524971 L164.516794,53.5871784 C166.853805,52.6064361 169.518945,52.8652937 171.62991,54.2762502 C173.740876,55.6872066 175.002352,58.0424466 175.002352,60.5763348 L175.002352,107.134252 C175.002352,109.66814 173.740876,112.02338 171.633556,113.434337 C170.368435,114.276536 168.902791,114.70675 167.429854,114.70675 Z" id="Shape"></path>
        </g>
    </g>
</svg>