<?xml version="1.0" encoding="UTF-8"?>
<svg width="144px" height="173px" viewBox="0 0 144 173" version="1.1" xmlns="http://www.w3.org/2000/svg" xmlns:xlink="http://www.w3.org/1999/xlink">
    <!-- Generator: Sketch 46.2 (44496) - http://www.bohemiancoding.com/sketch -->
    <title>icon-global</title>
    <desc>Created with Sketch.</desc>
    <defs></defs>
    <g id="Page-1" stroke="none" stroke-width="1" fill="none" fill-rule="evenodd">
        <g id="icon-global" fill-rule="nonzero" fill="#000000">
            <path d="M63.6505208,125.604167 C29.4744792,125.604167 1.67135417,97.8010417 1.67135417,63.625 C1.67135417,29.4489583 29.4744792,1.64583333 63.6505208,1.64583333 C97.8265625,1.64583333 125.629688,29.4489583 125.629688,63.625 C125.629688,97.8010417 97.8265625,125.604167 63.6505208,125.604167 Z M63.6505208,8.9375 C33.4958333,8.9375 8.96302083,33.4703125 8.96302083,63.625 C8.96302083,93.7796875 33.4958333,118.3125 63.6505208,118.3125 C93.8052083,118.3125 118.338021,93.7796875 118.338021,63.625 C118.338021,33.4703125 93.8052083,8.9375 63.6505208,8.9375 Z" id="Shape"></path>
            <path d="M63.6505208,143.796875 C43.1098958,143.796875 22.5692708,135.976562 6.93229167,120.343229 L12.0875,115.188021 C40.5213542,143.614583 86.7796875,143.618229 115.20625,115.188021 C143.636458,86.7578125 143.636458,40.4958333 115.20625,12.065625 L120.361458,6.91041667 C151.635417,38.184375 151.635417,89.0692708 120.361458,120.343229 C104.728125,135.976562 84.1911458,143.796875 63.6505208,143.796875 Z" id="Shape"></path>
            <rect id="Rectangle-path" x="56.3588542" y="140.1" width="7.29166667" height="14.765625"></rect>
            <rect id="Rectangle-path" x="63.6505208" y="140.1" width="7.29166667" height="14.765625"></rect>
            <path d="M118.214063,173 L9.08333333,173 L17.8442708,166.4375 C31.2171875,156.41875 47.0583333,151.125 63.646875,151.125 C80.2354167,151.125 96.0765625,156.41875 109.445833,166.4375 L118.214063,173 Z M32.8067708,165.708333 L94.4942708,165.708333 C84.953125,160.914062 74.4786458,158.416667 63.6505208,158.416667 C52.8223958,158.416667 42.3442708,160.914062 32.8067708,165.708333 Z" id="Shape"></path>
            <path d="M4.3546875,126.566667 C3.42135417,126.566667 2.48802083,126.209375 1.77708333,125.498438 C0.3515625,124.072917 0.3515625,121.76875 1.77708333,120.343229 L12.0875,110.032813 C13.5130208,108.607292 15.8171875,108.607292 17.2427083,110.032813 C18.6682292,111.458333 18.6682292,113.7625 17.2427083,115.188021 L6.93229167,125.498438 C6.22135417,126.209375 5.28802083,126.566667 4.3546875,126.566667 Z" id="Shape"></path>
            <path d="M112.628646,18.2890625 C111.695312,18.2890625 110.761979,17.9317708 110.051042,17.2208333 C108.625521,15.7953125 108.625521,13.4911458 110.051042,12.065625 L120.361458,1.75520833 C121.786979,0.3296875 124.091146,0.3296875 125.516667,1.75520833 C126.942188,3.18072917 126.942188,5.48489583 125.516667,6.91041667 L115.20625,17.2208333 C114.495313,17.9354167 113.561979,18.2890625 112.628646,18.2890625 Z" id="Shape"></path>
        </g>
    </g>
</svg>