<?xml version="1.0" encoding="utf-8"?>
<!-- Generator: Adobe Illustrator 19.1.0, SVG Export Plug-In . SVG Version: 6.00 Build 0)  -->
<!DOCTYPE svg PUBLIC "-//W3C//DTD SVG 1.1//EN" "http://www.w3.org/Graphics/SVG/1.1/DTD/svg11.dtd">
<svg version="1.1" id="Layer_1" xmlns="http://www.w3.org/2000/svg" xmlns:xlink="http://www.w3.org/1999/xlink" x="0px" y="0px"
	 viewBox="-127 175 245 151" style="enable-background:new -127 175 245 151;" xml:space="preserve">
<style type="text/css">
	.st0{fill:#6C2FA7;}
	.st1{fill:#8B44D1;}
</style>
<g>
	<g id="Group">
		<rect id="Rectangle-Copy-29" x="111.3" y="201.5" class="st0" width="6.7" height="72.5"/>
		<rect id="Rectangle-Copy-28" x="102.5" y="185.1" class="st0" width="6.7" height="88.9"/>
		<rect id="Rectangle-Copy-27" x="93.6" y="176.3" class="st0" width="6.7" height="97.7"/>
		<rect id="Rectangle-Copy-26" x="84.8" y="203.6" class="st0" width="6.7" height="70.4"/>
		<rect id="Rectangle-Copy-25" x="76" y="204.9" class="st0" width="6.7" height="69.1"/>
		<rect id="Rectangle-Copy-24" x="67.2" y="201.5" class="st0" width="6.7" height="72.5"/>
		<rect id="Rectangle-Copy-23" x="58.3" y="204.9" class="st0" width="6.7" height="69.1"/>
		<rect id="Rectangle-Copy-22" x="49.5" y="193.1" class="st0" width="6.7" height="80.9"/>
		<rect id="Rectangle-Copy-21" x="40.7" y="178.8" class="st0" width="6.7" height="95.2"/>
		<rect id="Rectangle-Copy-20" x="31.9" y="214.6" class="st0" width="6.7" height="59.4"/>
		<rect id="Rectangle-Copy-19" x="23" y="197.3" class="st0" width="6.7" height="76.7"/>
		<rect id="Rectangle-Copy-18" x="14.2" y="185.1" class="st0" width="6.7" height="88.9"/>
		<rect id="Rectangle-Copy-17" x="5.4" y="185.1" class="st0" width="6.7" height="88.9"/>
		<rect id="Rectangle-Copy-16" x="-3.4" y="204.9" class="st0" width="6.7" height="69.1"/>
		<rect id="Rectangle-Copy-15" x="-12.3" y="221.3" class="st0" width="6.7" height="52.7"/>
		<rect id="Rectangle-Copy-14" x="-21.1" y="207.9" class="st0" width="6.7" height="66.1"/>
		<rect id="Rectangle-Copy-13" x="-29.9" y="210.4" class="st0" width="6.7" height="63.6"/>
		<rect id="Rectangle-Copy-12" x="-38.7" y="217.5" class="st0" width="6.7" height="56.5"/>
		<rect id="Rectangle-Copy-11" x="-47.6" y="175" class="st0" width="6.7" height="99"/>
		<rect id="Rectangle-Copy-10" x="-56.4" y="183" class="st0" width="6.7" height="91"/>
		<rect id="Rectangle-Copy-9" x="-65.2" y="193.1" class="st0" width="6.7" height="80.9"/>
		<rect id="Rectangle-Copy-8" x="-74" y="183" class="st0" width="6.7" height="91"/>
		<rect id="Rectangle-Copy-7" x="-82.9" y="183" class="st0" width="6.7" height="91"/>
		<rect id="Rectangle-Copy-6" x="-91.7" y="187.6" class="st0" width="6.7" height="86.4"/>
		<rect id="Rectangle-Copy-5" x="-100.5" y="204.9" class="st0" width="6.7" height="69.1"/>
		<rect id="Rectangle-Copy-4" x="-109.3" y="197.3" class="st0" width="6.7" height="76.7"/>
		<rect id="Rectangle-Copy-3" x="-118.2" y="175" class="st0" width="6.7" height="99"/>
		<rect id="Rectangle-Copy-2" x="-127" y="187.6" class="st0" width="6.7" height="86.4"/>
	</g>
	<g id="Group_2_">
		<rect id="Rectangle-Copy-29_2_" x="111.3" y="274" class="st1" width="6.7" height="38.1"/>
		<rect id="Rectangle-Copy-28_2_" x="102.5" y="274" class="st1" width="6.7" height="46.7"/>
		<rect id="Rectangle-Copy-27_2_" x="93.6" y="274" class="st1" width="6.7" height="51.3"/>
		<rect id="Rectangle-Copy-26_2_" x="84.8" y="274" class="st1" width="6.7" height="37"/>
		<rect id="Rectangle-Copy-25_2_" x="76" y="274" class="st1" width="6.7" height="36.3"/>
		<rect id="Rectangle-Copy-24_2_" x="67.2" y="274" class="st1" width="6.7" height="38.1"/>
		<rect id="Rectangle-Copy-23_2_" x="58.3" y="274" class="st1" width="6.7" height="36.3"/>
		<rect id="Rectangle-Copy-22_2_" x="49.5" y="274" class="st1" width="6.7" height="42.5"/>
		<rect id="Rectangle-Copy-21_2_" x="40.7" y="274" class="st1" width="6.7" height="50"/>
		<rect id="Rectangle-Copy-20_2_" x="31.9" y="274" class="st1" width="6.7" height="31.2"/>
		<rect id="Rectangle-Copy-19_2_" x="23" y="274" class="st1" width="6.7" height="40.3"/>
		<rect id="Rectangle-Copy-18_2_" x="14.2" y="274" class="st1" width="6.7" height="46.7"/>
		<rect id="Rectangle-Copy-17_2_" x="5.4" y="274" class="st1" width="6.7" height="46.7"/>
		<rect id="Rectangle-Copy-16_2_" x="-3.4" y="274" class="st1" width="6.7" height="36.3"/>
		<rect id="Rectangle-Copy-15_2_" x="-12.3" y="274" class="st1" width="6.7" height="27.7"/>
		<rect id="Rectangle-Copy-14_2_" x="-21.1" y="274" class="st1" width="6.7" height="34.7"/>
		<rect id="Rectangle-Copy-13_2_" x="-29.9" y="274" class="st1" width="6.7" height="33.4"/>
		<rect id="Rectangle-Copy-12_2_" x="-38.7" y="274" class="st1" width="6.7" height="29.7"/>
		<rect id="Rectangle-Copy-11_2_" x="-47.6" y="274" class="st1" width="6.7" height="52"/>
		<rect id="Rectangle-Copy-10_2_" x="-56.4" y="274" class="st1" width="6.7" height="47.8"/>
		<rect id="Rectangle-Copy-9_2_" x="-65.2" y="274" class="st1" width="6.7" height="42.5"/>
		<rect id="Rectangle-Copy-8_2_" x="-74" y="274" class="st1" width="6.7" height="47.8"/>
		<rect id="Rectangle-Copy-7_2_" x="-82.9" y="274" class="st1" width="6.7" height="47.8"/>
		<rect id="Rectangle-Copy-6_2_" x="-91.7" y="274" class="st1" width="6.7" height="45.4"/>
		<rect id="Rectangle-Copy-5_2_" x="-100.5" y="274" class="st1" width="6.7" height="36.3"/>
		<rect id="Rectangle-Copy-4_2_" x="-109.3" y="274" class="st1" width="6.7" height="40.3"/>
		<rect id="Rectangle-Copy-3_2_" x="-118.2" y="274" class="st1" width="6.7" height="52"/>
		<rect id="Rectangle-Copy-2_2_" x="-127" y="274" class="st1" width="6.7" height="45.4"/>
	</g>
</g>
</svg>
