<?xml version="1.0" encoding="UTF-8"?>
<svg width="245px" height="151px" viewBox="0 0 245 151" version="1.1" xmlns="http://www.w3.org/2000/svg" xmlns:xlink="http://www.w3.org/1999/xlink">
    <!-- Generator: Sketch 46.2 (44496) - http://www.bohemiancoding.com/sketch -->
    <title>Group 2</title>
    <desc>Created with Sketch.</desc>
    <defs></defs>
    <g id="Page-1" stroke="none" stroke-width="1" fill="none" fill-rule="evenodd">
        <g id="Artboard" transform="translate(0.000000, -3296.000000)" fill="#50E3C2">
            <g id="Group-2" transform="translate(0.000000, 3296.000000)">
                <g id="Group">
                    <rect id="Rectangle-Copy-29" x="238.276158" y="26.5404255" width="6.7238422" height="72.4595745"></rect>
                    <rect id="Rectangle-Copy-28" x="229.451115" y="10.1106383" width="6.7238422" height="88.8893617"></rect>
                    <rect id="Rectangle-Copy-27" x="220.626072" y="1.26382979" width="6.7238422" height="97.7361702"></rect>
                    <rect id="Rectangle-Copy-26" x="211.801029" y="28.6468085" width="6.7238422" height="70.3531915"></rect>
                    <rect id="Rectangle-Copy-25" x="202.975986" y="29.9106383" width="6.7238422" height="69.0893617"></rect>
                    <rect id="Rectangle-Copy-24" x="194.150943" y="26.5404255" width="6.7238422" height="72.4595745"></rect>
                    <rect id="Rectangle-Copy-23" x="185.325901" y="29.9106383" width="6.7238422" height="69.0893617"></rect>
                    <rect id="Rectangle-Copy-22" x="176.500858" y="18.1148936" width="6.7238422" height="80.8851064"></rect>
                    <rect id="Rectangle-Copy-21" x="167.675815" y="3.79148936" width="6.7238422" height="95.2085106"></rect>
                    <rect id="Rectangle-Copy-20" x="158.850772" y="39.6" width="6.7238422" height="59.4"></rect>
                    <rect id="Rectangle-Copy-19" x="150.025729" y="22.3276596" width="6.7238422" height="76.6723404"></rect>
                    <rect id="Rectangle-Copy-18" x="141.200686" y="10.1106383" width="6.7238422" height="88.8893617"></rect>
                    <rect id="Rectangle-Copy-17" x="132.375643" y="10.1106383" width="6.7238422" height="88.8893617"></rect>
                    <rect id="Rectangle-Copy-16" x="123.5506" y="29.9106383" width="6.7238422" height="69.0893617"></rect>
                    <rect id="Rectangle-Copy-15" x="114.725557" y="46.3404255" width="6.7238422" height="52.6595745"></rect>
                    <rect id="Rectangle-Copy-14" x="105.900515" y="32.8595745" width="6.7238422" height="66.1404255"></rect>
                    <rect id="Rectangle-Copy-13" x="97.0754717" y="35.387234" width="6.7238422" height="63.612766"></rect>
                    <rect id="Rectangle-Copy-12" x="88.2504288" y="42.5489362" width="6.7238422" height="56.4510638"></rect>
                    <rect id="Rectangle-Copy-11" x="79.4253859" y="0" width="6.7238422" height="99"></rect>
                    <rect id="Rectangle-Copy-10" x="70.6003431" y="8.00425532" width="6.7238422" height="90.9957447"></rect>
                    <rect id="Rectangle-Copy-9" x="61.7753002" y="18.1148936" width="6.7238422" height="80.8851064"></rect>
                    <rect id="Rectangle-Copy-8" x="52.9502573" y="8.00425532" width="6.7238422" height="90.9957447"></rect>
                    <rect id="Rectangle-Copy-7" x="44.1252144" y="8.00425532" width="6.7238422" height="90.9957447"></rect>
                    <rect id="Rectangle-Copy-6" x="35.3001715" y="12.6382979" width="6.7238422" height="86.3617021"></rect>
                    <rect id="Rectangle-Copy-5" x="26.4751286" y="29.9106383" width="6.7238422" height="69.0893617"></rect>
                    <rect id="Rectangle-Copy-4" x="17.6500858" y="22.3276596" width="6.7238422" height="76.6723404"></rect>
                    <rect id="Rectangle-Copy-3" x="8.82504288" y="0" width="6.7238422" height="99"></rect>
                    <rect id="Rectangle-Copy-2" x="0" y="12.6382979" width="6.7238422" height="86.3617021"></rect>
                </g>
                <g id="Group" opacity="0.525192482" transform="translate(122.500000, 126.000000) scale(1, -1) translate(-122.500000, -126.000000) translate(0.000000, 101.000000)">
                    <rect id="Rectangle-Copy-29" x="238.276158" y="13.3333333" width="6.7238422" height="36.6666667"></rect>
                    <rect id="Rectangle-Copy-28" x="229.451115" y="5" width="6.7238422" height="45"></rect>
                    <rect id="Rectangle-Copy-27" x="220.626072" y="0.833333333" width="6.7238422" height="49.1666667"></rect>
                    <rect id="Rectangle-Copy-26" x="211.801029" y="14.5833333" width="6.7238422" height="35.4166667"></rect>
                    <rect id="Rectangle-Copy-25" x="202.975986" y="15" width="6.7238422" height="35"></rect>
                    <rect id="Rectangle-Copy-24" x="194.150943" y="13.3333333" width="6.7238422" height="36.6666667"></rect>
                    <rect id="Rectangle-Copy-23" x="185.325901" y="15" width="6.7238422" height="35"></rect>
                    <rect id="Rectangle-Copy-22" x="176.500858" y="9.16666667" width="6.7238422" height="40.8333333"></rect>
                    <rect id="Rectangle-Copy-21" x="167.675815" y="2.08333333" width="6.7238422" height="47.9166667"></rect>
                    <rect id="Rectangle-Copy-20" x="158.850772" y="20" width="6.7238422" height="30"></rect>
                    <rect id="Rectangle-Copy-19" x="150.025729" y="11.25" width="6.7238422" height="38.75"></rect>
                    <rect id="Rectangle-Copy-18" x="141.200686" y="5" width="6.7238422" height="45"></rect>
                    <rect id="Rectangle-Copy-17" x="132.375643" y="5" width="6.7238422" height="45"></rect>
                    <rect id="Rectangle-Copy-16" x="123.5506" y="15" width="6.7238422" height="35"></rect>
                    <rect id="Rectangle-Copy-15" x="114.725557" y="23.3333333" width="6.7238422" height="26.6666667"></rect>
                    <rect id="Rectangle-Copy-14" x="105.900515" y="16.6666667" width="6.7238422" height="33.3333333"></rect>
                    <rect id="Rectangle-Copy-13" x="97.0754717" y="17.9166667" width="6.7238422" height="32.0833333"></rect>
                    <rect id="Rectangle-Copy-12" x="88.2504288" y="21.6666667" width="6.7238422" height="28.3333333"></rect>
                    <rect id="Rectangle-Copy-11" x="79.4253859" y="0" width="6.7238422" height="50"></rect>
                    <rect id="Rectangle-Copy-10" x="70.6003431" y="4.16666667" width="6.7238422" height="45.8333333"></rect>
                    <rect id="Rectangle-Copy-9" x="61.7753002" y="9.16666667" width="6.7238422" height="40.8333333"></rect>
                    <rect id="Rectangle-Copy-8" x="52.9502573" y="4.16666667" width="6.7238422" height="45.8333333"></rect>
                    <rect id="Rectangle-Copy-7" x="44.1252144" y="4.16666667" width="6.7238422" height="45.8333333"></rect>
                    <rect id="Rectangle-Copy-6" x="35.3001715" y="6.25" width="6.7238422" height="43.75"></rect>
                    <rect id="Rectangle-Copy-5" x="26.4751286" y="15" width="6.7238422" height="35"></rect>
                    <rect id="Rectangle-Copy-4" x="17.6500858" y="11.25" width="6.7238422" height="38.75"></rect>
                    <rect id="Rectangle-Copy-3" x="8.82504288" y="0" width="6.7238422" height="50"></rect>
                    <rect id="Rectangle-Copy-2" x="0" y="6.25" width="6.7238422" height="43.75"></rect>
                </g>
            </g>
        </g>
    </g>
</svg>